<svg xmlns="http://www.w3.org/2000/svg" width="114" height="114" fill="#00000066" class="icon glyph-box" viewBox="0 0 99.61 99.657"><path d="M49.805 99.61c27.246 0 49.805-22.608 49.805-49.805C99.61 22.559 77.002 0 49.756 0 22.56 0 0 22.559 0 49.805c0 27.197 22.608 49.804 49.805 49.804Zm0-33.204c-14.697 0-25.977 5.274-30.957 11.133C12.305 70.166 8.35 60.5 8.35 49.805 8.35 26.758 26.71 8.3 49.756 8.3c23.047 0 41.504 18.457 41.553 41.504.049 10.693-3.955 20.41-10.547 27.734-4.932-5.86-16.26-11.133-30.957-11.133Zm0-8.3c9.424.097 16.748-7.91 16.748-18.409 0-9.863-7.373-18.017-16.748-18.017s-16.797 8.154-16.748 18.017c.049 10.498 7.373 18.31 16.748 18.408Z"/></svg>